<svg width="21" height="19" viewBox="0 0 21 19" fill="none" xmlns="http://www.w3.org/2000/svg">
<path d="M12.8226 18.2249L9.68003 18.4111L7.30737 13.7077C7.24914 13.5766 7.13418 13.3395 6.96249 12.9965C6.80656 12.6357 6.62301 12.2345 6.41183 11.7929C6.21642 11.3335 6.01214 10.8663 5.79898 10.3911C5.58581 9.91601 5.3919 9.48179 5.21722 9.08847C5.24304 9.52424 5.27283 10.0271 5.30659 10.5969C5.34035 11.1668 5.3746 11.745 5.40936 12.3316C5.44411 12.9183 5.4685 13.4718 5.48252 13.9924C5.5133 14.512 5.52925 14.9231 5.53036 15.2258L5.60722 18.6524L1.78582 18.8788L1.78311 1.7989L5.3531 1.5874L9.85594 11.16C9.99114 11.4547 10.1673 11.8732 10.3844 12.4153C10.6173 12.9397 10.8448 13.5149 11.0669 14.1409C11.2146 13.5099 11.3647 12.9207 11.5173 12.3734C11.6856 11.8084 11.8274 11.3627 11.9426 11.0363L15.2837 0.999073L18.7783 0.792043L20.7923 17.7528L16.8954 17.9836L16.542 14.5734C16.5064 14.256 16.4648 13.838 16.4173 13.3194C16.3865 12.7998 16.3542 12.2551 16.3205 11.6852C16.2857 11.0986 16.2515 10.5204 16.2177 9.95051C16.1997 9.3629 16.1783 8.85958 16.1535 8.44057C16.0402 8.80048 15.9132 9.21167 15.7724 9.67414C15.6474 10.1188 15.5135 10.5557 15.3707 10.9846C15.2279 11.4136 15.092 11.8169 14.963 12.1945C14.833 12.5554 14.7321 12.8389 14.6602 13.045L12.8226 18.2249Z" fill="#F0283C"/>
</svg>
